{
  "source": "C:\\Users\\Peter\\Desktop\\stuff\\MIUN\\quantitative_research\\video_compression\\videos\\BVI-HD\\BVI-HD_CDVL_videos\\ORIG\\Diver_1920x1080_30fps.mp4",
  "output": "C:\\Users\\Peter\\Desktop\\stuff\\MIUN\\quantitative_research\\video_compression\\compressed_videos\\BVI-HD\\vp9\\1.5\\Diver_1920x1080_30fps_vp9.webm",
  "codec": "vp9",
  "ok": "Input #0, mov,mp4,m4a,3gp,3g2,mj2, from 'C:\\Users\\Peter\\Desktop\\stuff\\MIUN\\quantitative_research\\video_compression\\videos\\BVI-HD\\BVI-HD_CDVL_videos\\ORIG\\Diver_1920x1080_30fps.mp4':\n  Metadata:\n    major_brand     : isom\n    minor_version   : 512\n    compatible_brands: isomiso2avc1mp41\n    encoder         : Lavf54.28.101\n  Duration: 00:00:05.00, start: 0.000000, bitrate: 196798 kb/s\n  Stream #0:0[0x1](und): Video: h264 (High 4:4:4 Predictive) (avc1 / 0x31637661), yuv420p(progressive), 1920x1080, 196794 kb/s, 30 fps, 30 tbr, 30 tbn (default)\n    Metadata:\n      handler_name    : VideoHandler\n      vendor_id       : [0][0][0][0]\n[out#0/webm @ 000002ab3a9e9840] Codec AVOption b:a (set bitrate (in bits/s)) has not been used for any stream. The most likely reason is either wrong type (e.g. a video option with no video streams) or that it is a private option of some decoder which was not actually used for any stream.\nStream mapping:\n  Stream #0:0 -> #0:0 (h264 (native) -> vp9 (libvpx-vp9))\nPress [q] to stop, [?] for help\n[libvpx-vp9 @ 000002ab3b040b40] v1.15.2-100-g40561f514\nOutput #0, webm, to 'C:\\Users\\Peter\\Desktop\\stuff\\MIUN\\quantitative_research\\video_compression\\compressed_videos\\BVI-HD\\vp9\\1.5\\Diver_1920x1080_30fps_vp9.webm':\n  Metadata:\n    major_brand     : isom\n    minor_version   : 512\n    compatible_brands: isomiso2avc1mp41\n    encoder         : Lavf62.3.100\n  Stream #0:0(und): Video: vp9, yuv420p(tv, progressive), 1920x1080, q=2-31, 1500 kb/s, 30 fps, 1k tbn (default)\n    Metadata:\n      encoder         : Lavc62.11.100 libvpx-vp9\n      handler_name    : VideoHandler\n      vendor_id       : [0][0][0][0]\n    Side data:\n      cpb: bitrate max/min/avg: 0/0/0 buffer size: 1500000 vbv_delay: N/A\nframe=    0 fps=0.0 q=0.0 size=       0KiB time=N/A bitrate=N/A speed=N/A elapsed=0:00:00.51    \nframe=    3 fps=2.9 q=57.0 size=       1KiB time=00:00:00.10 bitrate=  50.7kbits/s speed=0.0963x elapsed=0:00:01.03    \nframe=    9 fps=5.6 q=34.0 size=       1KiB time=00:00:00.30 bitrate=  16.9kbits/s speed=0.187x elapsed=0:00:01.60    \nframe=   14 fps=6.6 q=32.0 size=       1KiB time=00:00:00.46 bitrate=  10.9kbits/s speed=0.219x elapsed=0:00:02.13    \nframe=   20 fps=7.5 q=32.0 size=       1KiB time=00:00:00.66 bitrate=   7.6kbits/s speed=0.251x elapsed=0:00:02.65    \nframe=   25 fps=7.8 q=31.0 size=       1KiB time=00:00:00.83 bitrate=   6.1kbits/s speed=0.26x elapsed=0:00:03.20    \nframe=   30 fps=8.0 q=31.0 size=       1KiB time=00:00:01.00 bitrate=   5.1kbits/s speed=0.266x elapsed=0:00:03.76    \nframe=   36 fps=8.4 q=32.0 size=       1KiB time=00:00:01.20 bitrate=   4.2kbits/s speed=0.279x elapsed=0:00:04.29    \nframe=   41 fps=8.5 q=23.0 size=       1KiB time=00:00:01.36 bitrate=   3.7kbits/s speed=0.283x elapsed=0:00:04.82    \nframe=   47 fps=8.8 q=20.0 size=       1KiB time=00:00:01.56 bitrate=   3.2kbits/s speed=0.293x elapsed=0:00:05.35    \nframe=   52 fps=8.8 q=35.0 size=       1KiB time=00:00:01.73 bitrate=   2.9kbits/s speed=0.294x elapsed=0:00:05.89    \nframe=   57 fps=8.8 q=36.0 size=       1KiB time=00:00:01.90 bitrate=   2.7kbits/s speed=0.294x elapsed=0:00:06.45    \nframe=   60 fps=8.6 q=36.0 size=       1KiB time=00:00:01.96 bitrate=   2.6kbits/s speed=0.282x elapsed=0:00:06.98    \nframe=   64 fps=8.5 q=36.0 size=       1KiB time=00:00:02.10 bitrate=   2.4kbits/s speed=0.278x elapsed=0:00:07.56    \nframe=   66 fps=8.1 q=36.0 size=       1KiB time=00:00:02.20 bitrate=   2.3kbits/s speed=0.271x elapsed=0:00:08.10    \nframe=   70 fps=8.1 q=36.0 size=       1KiB time=00:00:02.33 bitrate=   2.2kbits/s speed=0.27x elapsed=0:00:08.64    \nframe=   75 fps=8.2 q=37.0 size=       1KiB time=00:00:02.50 bitrate=   2.0kbits/s speed=0.272x elapsed=0:00:09.19    \nframe=   80 fps=8.2 q=37.0 size=       1KiB time=00:00:02.63 bitrate=   1.9kbits/s speed=0.271x elapsed=0:00:09.71    \nframe=   84 fps=8.2 q=38.0 size=       1KiB time=00:00:02.80 bitrate=   1.8kbits/s speed=0.273x elapsed=0:00:10.25    \nframe=   88 fps=8.1 q=37.0 size=       1KiB time=00:00:02.93 bitrate=   1.7kbits/s speed=0.271x elapsed=0:00:10.81    \nframe=   93 fps=8.2 q=35.0 size=       1KiB time=00:00:03.10 bitrate=   1.6kbits/s speed=0.273x elapsed=0:00:11.36    \nframe=   98 fps=8.2 q=36.0 size=       1KiB time=00:00:03.26 bitrate=   1.6kbits/s speed=0.274x elapsed=0:00:11.90    \nframe=  103 fps=8.3 q=38.0 size=       1KiB time=00:00:03.43 bitrate=   1.5kbits/s speed=0.276x elapsed=0:00:12.42    \nframe=  107 fps=8.2 q=39.0 size=       1KiB time=00:00:03.56 bitrate=   1.4kbits/s speed=0.275x elapsed=0:00:12.97    \nframe=  110 fps=8.1 q=42.0 size=       1KiB time=00:00:03.66 bitrate=   1.4kbits/s speed=0.271x elapsed=0:00:13.53    \nframe=  115 fps=8.2 q=44.0 size=       1KiB time=00:00:03.83 bitrate=   1.3kbits/s speed=0.272x elapsed=0:00:14.09    \nframe=  120 fps=8.2 q=47.0 size=       1KiB time=00:00:04.00 bitrate=   1.3kbits/s speed=0.274x elapsed=0:00:14.62    \nframe=  124 fps=8.2 q=47.0 size=       1KiB time=00:00:04.13 bitrate=   1.2kbits/s speed=0.273x elapsed=0:00:15.16    \nframe=  126 fps=8.0 q=47.0 size=       1KiB time=00:00:04.20 bitrate=   1.2kbits/s speed=0.268x elapsed=0:00:15.68    \nframe=  126 fps=7.8 q=47.0 size=       1KiB time=00:00:04.20 bitrate=   1.2kbits/s speed=0.259x elapsed=0:00:16.21    \nframe=  126 fps=7.5 q=47.0 size=       1KiB time=00:00:04.20 bitrate=   1.2kbits/s speed=0.251x elapsed=0:00:16.75    \nframe=  126 fps=7.3 q=47.0 size=       1KiB time=00:00:04.20 bitrate=   1.2kbits/s speed=0.243x elapsed=0:00:17.29    \nframe=  126 fps=7.1 q=47.0 size=       1KiB time=00:00:04.20 bitrate=   1.2kbits/s speed=0.235x elapsed=0:00:17.85    \n[out#0/webm @ 000002ab3a9e9840] video:778KiB audio:0KiB subtitle:0KiB other streams:0KiB global headers:0KiB muxing overhead: 0.219680%\nframe=  150 fps=8.2 q=47.0 Lsize=     780KiB time=00:00:05.00 bitrate=1278.1kbits/s speed=0.273x elapsed=0:00:18.30    \n",
  "seconds": 18.588139295578003,
  "probe_out": {}
}